<svg xmlns="http://www.w3.org/2000/svg" width="15" height="260" viewBox="0 0 15 260">
  <g id="shohei" transform="translate(0 259.96) rotate(-90)">
    <path id="パス_41" data-name="パス 41" d="M16.694,10.681A7.291,7.291,0,0,1,20.24,12,3.48,3.48,0,0,1,21.5,14.758a4.276,4.276,0,0,1-2.017,3.647,8.754,8.754,0,0,1-4.709,1.162c-4.454,0-6.271-2.254-6.847-2.986l2.726-1.723a4.556,4.556,0,0,0,4.3,2.164c2.238,0,3.3-.9,3.3-1.843,0-1.2-1.573-1.483-2.571-1.663l-2.172-.4a8.63,8.63,0,0,1-3.346-1.222,3.451,3.451,0,0,1-1.44-2.755c0-2.224,2.083-4.548,6.072-4.548a9.585,9.585,0,0,1,4.421,1.042A5.7,5.7,0,0,1,21.16,7.214l-2.3,1.753A4.821,4.821,0,0,0,14.844,7c-2.017,0-2.9,1.022-2.9,1.7,0,1.142,1.6,1.423,2.659,1.623Z" transform="translate(-7.97 -4.567)" fill="#333"/>
    <path id="パス_42" data-name="パス 42" d="M93.094,20.248H89.9V13.777H83.321v6.472H80.13V6.19h3.191v5H89.9v-5h3.191Z" transform="translate(-60.171 -5.725)" fill="#333"/>
    <path id="パス_43" data-name="パス 43" d="M162.983,17.353a7.418,7.418,0,0,1-5.429,2.124,7.159,7.159,0,0,1-7.424-7.453,7.346,7.346,0,0,1,7.534-7.514A7.131,7.131,0,0,1,165,12.084,7.724,7.724,0,0,1,162.983,17.353ZM160.656,8.5a3.864,3.864,0,0,0-3.014-1.342c-2.881,0-4.21,2.545-4.21,4.929a5.326,5.326,0,0,0,1.152,3.386,4.015,4.015,0,0,0,2.989,1.282c2.349,0,4.21-1.753,4.155-4.909A5.013,5.013,0,0,0,160.656,8.5Z" transform="translate(-110.928 -4.51)" fill="#333"/>
    <path id="パス_44" data-name="パス 44" d="M240.054,20.248h-3.191V13.777h-6.582v6.472H227.09V6.19h3.191v5h6.582v-5h3.191Z" transform="translate(-166.649 -5.725)" fill="#333"/>
    <path id="パス_45" data-name="パス 45" d="M311.763,20.248H299.73V6.19h11.545V8.54h-8.354v2.768h6.249v2.509h-6.249V17.66h8.842Z" transform="translate(-219.241 -5.725)" fill="#333"/>
    <path id="パス_46" data-name="パス 46" d="M369,20.248H365.81V6.19H369Z" transform="translate(-267.072 -5.725)" fill="#333"/>
    <path id="パス_47" data-name="パス 47" d="M443.709,20.248h-3.183V8.55h-4.4V6.19h12.011V8.54h-4.432Z" transform="translate(-317.998 -5.725)" fill="#333"/>
    <path id="パス_48" data-name="パス 48" d="M509.34,20.248h-3.28l-.687-1.991h-6.05l-.665,1.991H495.49L500.52,6.19H504.2Zm-4.786-4.361-2.274-6.611-2.194,6.611Z" transform="translate(-360.98 -5.725)" fill="#333"/>
    <path id="パス_49" data-name="パス 49" d="M579.724,20.248h-3.7L572.057,13.8l-2.371,2.429v4.022H566.45l.133-14.058h3.235l-.133,6.073L575.4,6.19h4.011l-5.075,5.227Z" transform="translate(-412.357 -5.725)" fill="#333"/>
    <path id="パス_50" data-name="パス 50" d="M646.163,20.248H634.13V6.19h11.545V8.54h-8.354v2.768h6.249v2.509h-6.249V17.66h8.842Z" transform="translate(-461.356 -5.725)" fill="#333"/>
    <path id="パス_51" data-name="パス 51" d="M712.628,20.248h-3.169l-6.4-9.677v9.677H700.13V6.19h3.288l6.316,9.558V6.19h2.9Z" transform="translate(-509.143 -5.725)" fill="#333"/>
    <path id="パス_52" data-name="パス 52" d="M780.06,20.248h-3.28l-.687-1.991h-6.05l-.665,1.991H766.21L771.24,6.19h3.678Zm-4.787-4.361-2.282-6.611L770.8,15.887Z" transform="translate(-557.13 -5.725)" fill="#333"/>
    <path id="パス_53" data-name="パス 53" d="M850.444,20.248h-3.7L842.776,13.8l-2.371,2.429v4.022H837.17L837.3,6.19h3.235l-.133,6.073,5.717-6.073h4.019l-5.075,5.227Z" transform="translate(-608.434 -5.725)" fill="#333"/>
    <path id="パス_54" data-name="パス 54" d="M913.74,20.248h-3.28l-.687-1.991h-6.05l-.665,1.991H899.89L904.92,6.19H908.6Zm-4.787-4.361-2.282-6.611-2.194,6.611Z" transform="translate(-653.78 -5.725)" fill="#333"/>
  </g>
</svg>
